<?xml version="1.0" encoding="utf-8"?>
<!-- Generator: Adobe Illustrator 26.4.0, SVG Export Plug-In . SVG Version: 6.00 Build 0)  -->
<svg version="1.1" id="Layer_1" xmlns="http://www.w3.org/2000/svg" xmlns:xlink="http://www.w3.org/1999/xlink" x="0px" y="0px"
	 viewBox="0 0 34 29" style="enable-background:new 0 0 34 29;" xml:space="preserve">
<style type="text/css">
	.st0{fill:#494949;}
</style>
<g>
	<path class="st0" d="M32.2,16.2c-0.5,0-1-0.2-1.3-0.7L23,3.1H9.3c-0.8,0-1.5-0.7-1.5-1.5s0.7-1.5,1.5-1.5h14.5c0.5,0,1,0.3,1.3,0.7
		l8.3,13.1c0.4,0.7,0.2,1.6-0.5,2.1C32.7,16.1,32.4,16.2,32.2,16.2z"/>
	<path class="st0" d="M24.3,28.9h-15c-0.2,0-0.5-0.1-0.7-0.2c-0.1,0-0.2-0.1-0.3-0.2c-0.4-0.3-0.7-0.7-0.7-1.1L0.2,15.3
		c-0.3-0.5-0.3-1.1,0-1.5L8,0.8c0.3-0.5,0.8-0.7,1.3-0.7c0,0,0,0,0,0c0.5,0,1,0.3,1.3,0.7L17.9,13l14.3,0.2c0.5,0,1,0.3,1.3,0.8
		s0.2,1.1,0,1.5l-7.9,12.7C25.3,28.6,24.8,28.9,24.3,28.9z M11.7,25.9h11.7l6-9.7L17.8,16L11.7,25.9z M3.3,14.5l5.9,9.8l6.1-9.8
		l-6-10L3.3,14.5z"/>
</g>
</svg>
