<?xml version="1.0" encoding="utf-8"?>
<!-- Generator: Adobe Illustrator 26.4.0, SVG Export Plug-In . SVG Version: 6.00 Build 0)  -->
<svg version="1.1" id="Layer_1" xmlns="http://www.w3.org/2000/svg" xmlns:xlink="http://www.w3.org/1999/xlink" x="0px" y="0px"
	 viewBox="0 0 200 200" style="enable-background:new 0 0 200 200;" xml:space="preserve">
<style type="text/css">
	.st0{fill:#FAAF41;}
	.st1{fill:#58595B;}
</style>
<g>
	<circle class="st0" cx="100" cy="100.6" r="99.4"/>
	<path class="st1" d="M82.1,171.4c-17,0-30.8-13.8-30.8-30.8v-36h-2.6c-17,0-30.8-13.8-30.8-30.8s13.8-30.8,30.8-30.8h41.4
		c2.5,0,4.5,2,4.5,4.5s-2,4.5-4.5,4.5H48.7c-12,0-21.8,9.8-21.8,21.8s9.8,21.8,21.8,21.8h7.1c2.5,0,4.5,2,4.5,4.5v40.5
		c0,12,9.8,21.8,21.8,21.8c6.7,0,12.6-3,16.5-8.5c0.1-0.1,0.2-0.2,0.3-0.4c1.3-1.7,3.7-2.3,5.6-1.3c0.5,0.3,1,0.6,1.4,1.1
		c0.2,0.2,2.8,2.9,8.1,5.8c3.9,2.1,8.8,3.2,14.4,3.2c21.2,0,38.4-17.2,38.4-38.4c0-9.4-3.4-18.4-9.7-25.5c-1.5-1.7-1.5-4.2-0.1-5.9
		c7.1-8.7,6.5-21.2-1.5-29.2c-7.3-7.3-16.9-11.3-27.2-11.3c-12.3,0-24,6-31.2,16.1c-0.8,1.2-2.2,2-3.8,2H48.7c-2,0-3.6,1.6-3.6,3.6
		s1.6,3.6,3.6,3.6H74c2.5,0,4.5,2,4.5,4.5v58.7c0,2,1.6,3.6,3.6,3.6c2,0,3.6-1.6,3.6-3.6V81.9c0-2.5,2-4.5,4.5-4.5l11.9-0.1
		c4.9-9.8,15.1-16.2,26.2-16.2c7.8,0,15.2,3.1,20.8,8.6c5,5,4.9,13,0,18c-2.4,2.4-5.6,3.7-9,3.7s-6.6-1.3-9-3.7
		c-0.7-0.8-1.7-1.2-2.8-1.2c-2.2,0-4,1.8-4,4c0,2.2,1.8,4,4,4c16.2,0,29.4,13.2,29.4,29.4s-13.2,29.4-29.4,29.4
		c-8.2,0-16.1-3.5-21.7-9.5c-1.5-1.7-2.6-3.8-3.1-6c-0.2-1-0.3-2.1-0.3-3.2c0.2-3.4,1.6-6.5,4.1-8.8c2.3-2.1,5.4-3.3,8.6-3.3
		c3.6,0,6.9,1.5,9.4,4.1c0.8,0.8,1.8,1.3,2.9,1.3c2.2,0,4-1.8,4-4c0-2.2-1.8-4-4-4c-12.9,0-24.2-8.3-28-20.6c-0.7-2.4,0.6-4.9,3-5.7
		c2.4-0.7,4.9,0.6,5.7,3c2.7,8.5,10.5,14.2,19.4,14.2c7.2,0,13,5.8,13,13s-5.9,13-13,13c-3.7,0-7.2-1.5-9.6-4.2
		c-1.3-1.4-3.7-1.5-5.1-0.2c-0.7,0.7-1.1,1.5-1.2,2.5c0,0.3,0,0.6,0.1,0.9c0.1,0.6,0.4,1.2,0.9,1.7c3.8,4.2,9.3,6.6,15,6.6
		c11.2,0,20.3-9.1,20.3-20.3c0-11.2-9.1-20.3-20.3-20.3c-7.2,0-13-5.8-13-13c0-7.2,5.8-13,13-13c3.5,0,6.8,1.4,9.2,3.8
		c1.4,1.4,3.7,1.4,5.1,0c0.7-0.7,1.1-1.6,1.1-2.6c0-1-0.4-1.9-1.1-2.6c-3.8-3.8-8.9-5.9-14.4-5.9c-8.4,0-16.1,5.3-19,13.2
		c-0.7,1.8-2.3,2.9-4.2,2.9l-10.3,0v54.2c0,7-5.7,12.7-12.7,12.7c-7,0-12.7-5.7-12.7-12.7V86.4H48.7c-7,0-12.7-5.7-12.7-12.7
		c0-7,5.7-12.7,12.7-12.7h42.5c9-11.3,22.7-18.1,37.3-18.1c12.7,0,24.6,4.9,33.6,13.9c10.4,10.4,11.9,26.2,4.3,38.3
		c6.2,8.2,9.6,18.3,9.6,28.7c0,26.2-21.3,47.5-47.5,47.5c-7.2,0-13.5-1.5-18.8-4.3c-2.8-1.5-5-3-6.7-4.3
		C97.5,168.3,90.1,171.4,82.1,171.4z"/>
</g>
</svg>
