<?xml version="1.0" encoding="utf-8"?>
<!-- Generator: Adobe Illustrator 26.4.0, SVG Export Plug-In . SVG Version: 6.00 Build 0)  -->
<svg version="1.1" id="Layer_1" xmlns="http://www.w3.org/2000/svg" xmlns:xlink="http://www.w3.org/1999/xlink" x="0px" y="0px"
	 viewBox="0 0 1433 515.3" style="enable-background:new 0 0 1433 515.3;" xml:space="preserve">
<style type="text/css">
	.st0{display:none;}
	.st1{display:inline;}
	.st2{fill:none;stroke:#000000;stroke-width:0.25;stroke-miterlimit:10;}
	.st3{fill:none;stroke:#494949;stroke-width:0.75;stroke-linecap:round;stroke-linejoin:round;stroke-miterlimit:10;}
	.st4{fill:none;stroke:#494949;stroke-width:0.75;stroke-miterlimit:10;}
</style>
<g class="st0">
	<g class="st1">
		<line class="st2" x1="565.7" y1="674.5" x2="639.3" y2="794.5"/>
		<line class="st2" x1="579.5" y1="674.1" x2="652.9" y2="793.8"/>
		<line class="st2" x1="593.3" y1="673.6" x2="666.6" y2="793"/>
		<line class="st2" x1="607.2" y1="673.2" x2="680.2" y2="792.2"/>
		<line class="st2" x1="621" y1="672.8" x2="693.8" y2="791.4"/>
		<line class="st2" x1="634.9" y1="672.3" x2="707.5" y2="790.6"/>
		<line class="st2" x1="648.7" y1="671.9" x2="721.1" y2="789.8"/>
		<line class="st2" x1="662.5" y1="671.4" x2="734.7" y2="789.1"/>
		<line class="st2" x1="676.4" y1="671" x2="748.4" y2="788.3"/>
		<line class="st2" x1="690.2" y1="670.5" x2="762" y2="787.5"/>
		<line class="st2" x1="704.1" y1="670.1" x2="775.6" y2="786.7"/>
		<line class="st2" x1="717.9" y1="669.6" x2="789.3" y2="785.9"/>
		<line class="st2" x1="731.7" y1="669.2" x2="802.9" y2="785.1"/>
		<line class="st2" x1="745.6" y1="668.8" x2="816.5" y2="784.4"/>
		<line class="st2" x1="759.4" y1="668.3" x2="830.2" y2="783.6"/>
		<line class="st2" x1="773.3" y1="667.9" x2="843.8" y2="782.8"/>
		<line class="st2" x1="787.1" y1="667.4" x2="857.4" y2="782"/>
		<line class="st2" x1="800.9" y1="667" x2="871" y2="781.2"/>
		<line class="st2" x1="814.8" y1="666.5" x2="884.7" y2="780.4"/>
		<line class="st2" x1="828.6" y1="666.1" x2="898.3" y2="779.7"/>
		<line class="st2" x1="842.5" y1="665.6" x2="911.9" y2="778.9"/>
		<line class="st2" x1="856.3" y1="665.2" x2="925.6" y2="778.1"/>
		<line class="st2" x1="870.1" y1="664.8" x2="939.2" y2="777.3"/>
		<line class="st2" x1="884" y1="664.3" x2="952.8" y2="776.5"/>
	</g>
	<g class="st1">
		<line class="st2" x1="952.8" y1="674.5" x2="879.2" y2="794.5"/>
		<line class="st2" x1="939" y1="674.1" x2="865.6" y2="793.8"/>
		<line class="st2" x1="925.2" y1="673.6" x2="851.9" y2="793"/>
		<line class="st2" x1="911.3" y1="673.2" x2="838.3" y2="792.2"/>
		<line class="st2" x1="897.5" y1="672.8" x2="824.7" y2="791.4"/>
		<line class="st2" x1="883.6" y1="672.3" x2="811" y2="790.6"/>
		<line class="st2" x1="869.8" y1="671.9" x2="797.4" y2="789.8"/>
		<line class="st2" x1="856" y1="671.4" x2="783.8" y2="789.1"/>
		<line class="st2" x1="842.1" y1="671" x2="770.1" y2="788.3"/>
		<line class="st2" x1="828.3" y1="670.5" x2="756.5" y2="787.5"/>
		<line class="st2" x1="814.4" y1="670.1" x2="742.9" y2="786.7"/>
		<line class="st2" x1="800.6" y1="669.6" x2="729.2" y2="785.9"/>
		<line class="st2" x1="786.8" y1="669.2" x2="715.6" y2="785.1"/>
		<line class="st2" x1="772.9" y1="668.8" x2="702" y2="784.4"/>
		<line class="st2" x1="759.1" y1="668.3" x2="688.3" y2="783.6"/>
		<line class="st2" x1="745.2" y1="667.9" x2="674.7" y2="782.8"/>
		<line class="st2" x1="731.4" y1="667.4" x2="661.1" y2="782"/>
		<line class="st2" x1="717.6" y1="667" x2="647.4" y2="781.2"/>
		<line class="st2" x1="703.7" y1="666.5" x2="633.8" y2="780.4"/>
		<line class="st2" x1="689.9" y1="666.1" x2="620.2" y2="779.7"/>
		<line class="st2" x1="676" y1="665.6" x2="606.5" y2="778.9"/>
		<line class="st2" x1="662.2" y1="665.2" x2="592.9" y2="778.1"/>
		<line class="st2" x1="648.4" y1="664.8" x2="579.3" y2="777.3"/>
		<line class="st2" x1="634.5" y1="664.3" x2="565.7" y2="776.5"/>
	</g>
</g>
<image style="overflow:visible;" width="1433" height="444" xlink:href="../../Desktop/Screen Shot 2022-08-09 at 9.12.30 PM.png" >
</image>
<g>
	<g>
		<polygon class="st3" points="647.9,380.8 664.5,380.8 656.2,393.9 639.9,393.9 		"/>
		<polyline class="st3" points="664.5,380.8 656.1,367.5 639.9,367.5 631.3,380.8 639.9,393.9 		"/>
		<line class="st3" x1="647.9" y1="380.8" x2="639.9" y2="367.5"/>
	</g>
	<g>
		<polygon class="st3" points="379.9,387.3 396.4,387.3 404.5,400.7 388,400.4 		"/>
		<polyline class="st3" points="379.9,387.3 388.1,374.1 404.5,374.1 412.5,387.3 404.5,400.7 		"/>
		<line class="st3" x1="396.4" y1="387.3" x2="404.5" y2="374.1"/>
	</g>
	<g>
		<polygon class="st3" points="198.9,473.7 215.3,473.7 223.4,460.3 206.8,460.3 		"/>
		<polyline class="st3" points="198.9,473.7 207.1,486.9 223.4,486.9 231.5,473.7 223.4,460.3 		"/>
		<line class="st3" x1="215.3" y1="473.7" x2="223.4" y2="486.9"/>
	</g>
	<g>
		<polygon class="st3" points="223.5,422.2 192,422.2 199.4,435.3 231.4,435.6 		"/>
		<polyline class="st3" points="192,422.2 183.2,436.1 191.4,448.8 223.5,448.8 231.5,435.7 		"/>
		<line class="st3" x1="199.4" y1="435.3" x2="191.4" y2="448.8"/>
	</g>
	<g>
		<polygon class="st3" points="737.4,486.6 754,486.6 745.7,473.5 729.4,473.5 		"/>
		<polyline class="st3" points="754,486.6 745.6,499.8 729.4,499.8 720.8,486.6 729.4,473.5 		"/>
		<line class="st3" x1="737.4" y1="486.6" x2="729.4" y2="499.8"/>
	</g>
	<g>
		<polygon class="st3" points="1126.9,378.2 1143.5,378.2 1135.2,365.1 1118.9,365.1 		"/>
		<polyline class="st3" points="1143.5,378.2 1135.1,391.5 1118.9,391.5 1110.4,378.2 1118.9,365.1 		"/>
		<line class="st3" x1="1126.9" y1="378.2" x2="1118.9" y2="391.5"/>
	</g>
	<g>
		<polygon class="st3" points="885.1,361 901.5,361 909.6,347.6 893.1,347.8 		"/>
		<polyline class="st3" points="885.1,361 893.3,374.2 909.6,374.2 917.7,361 909.6,347.6 		"/>
		<line class="st3" x1="901.5" y1="361" x2="909.6" y2="374.2"/>
	</g>
	<g>
		<polygon class="st3" points="665.2,507.5 633.6,507.5 641.1,494.4 673.7,494.4 		"/>
		<polyline class="st3" points="633.6,507.5 624.9,493.6 633,480.9 665.2,480.9 673.7,494.4 		"/>
		<line class="st3" x1="641.1" y1="494.4" x2="633" y2="480.9"/>
	</g>
	<g>
		<polygon class="st3" points="901.5,493.8 917.8,493.8 934,467.2 917.7,467.2 		"/>
		<polyline class="st3" points="901.5,493.8 893.5,480.3 909.8,453.1 925.7,453.1 934,467.2 		"/>
		<line class="st3" x1="917.7" y1="467.2" x2="909.8" y2="453.1"/>
	</g>
</g>
<g>
	<path class="st4" d="M326.3,474.5"/>
	<path class="st4" d="M326.2,473.4"/>
	<path class="st4" d="M326.2,473.4"/>
	<path class="st4" d="M380.1,475.4"/>
	<path class="st4" d="M380,474.3"/>
	<g>
		<polygon class="st3" points="566.9,407.2 582.4,407.2 574.9,420.2 591.7,420.2 583.2,433.8 566.4,433.8 558.7,447 542.4,447 
			550.4,433.6 534.1,433.6 542.3,420.2 558.6,420.2 		"/>
		<polyline class="st3" points="591.7,420.2 575.3,394.4 558.7,394.4 550.1,407.2 534.5,407.2 526.1,420.5 542.4,447 		"/>
		<line class="st3" x1="542.3" y1="420.2" x2="534.5" y2="407.2"/>
		<line class="st3" x1="558.2" y1="420.2" x2="550.4" y2="407.2"/>
		<line class="st3" x1="566.8" y1="408" x2="559" y2="394.9"/>
	</g>
	<g>
		<polyline class="st3" points="616,460.1 599.2,460.1 591.5,473.4 575.2,473.4 583.2,459.9 566.8,459.9 575,446.6 591.4,446.6 
			599.6,433.5 		"/>
		<polyline class="st3" points="608.1,420.7 591.5,420.7 582.8,433.5 567.2,433.5 558.9,446.8 575.2,473.4 		"/>
		<line class="st3" x1="575" y1="446.6" x2="567.2" y2="433.5"/>
		<line class="st3" x1="590.9" y1="446.6" x2="583.1" y2="433.5"/>
		<line class="st3" x1="599.5" y1="434.3" x2="591.7" y2="421.2"/>
	</g>
	<g>
		<polygon class="st3" points="485.5,407.2 501.8,407.2 509.7,420.5 526.1,420.5 534.9,434.3 517.8,434.3 526.5,446.6 509.7,446.6 
			501.8,433.8 485.5,433.8 477.2,420.2 493.5,420.2 		"/>
		<polyline class="st3" points="485.5,407.2 468.8,433.5 477.1,446.6 493.5,446.6 501.8,460.3 518.5,460.3 534.9,434.3 		"/>
		<line class="st3" x1="485.5" y1="433.8" x2="477.1" y2="446.6"/>
		<line class="st3" x1="502.2" y1="434.3" x2="493.8" y2="447.1"/>
		<line class="st3" x1="510.3" y1="447" x2="501.8" y2="459.9"/>
	</g>
	<g>
		<polygon class="st3" points="509.8,393.9 526.4,393.9 518.1,407 501.8,407 		"/>
		<polyline class="st3" points="526.4,393.9 518,380.6 501.8,380.6 493.2,393.9 501.8,407 		"/>
		<line class="st3" x1="509.8" y1="393.9" x2="501.8" y2="380.6"/>
	</g>
	<g>
		<polygon class="st3" points="378.4,447.6 395,447.6 386.6,460.7 370.4,460.7 		"/>
		<polyline class="st3" points="395,447.6 386.5,434.3 370.4,434.3 362,447.3 370.4,460.7 		"/>
		<line class="st3" x1="378.4" y1="447.6" x2="370.4" y2="434.3"/>
	</g>
	<g>
		<polygon class="st3" points="600,407.3 616.6,407.3 608.3,420.4 592,420.4 		"/>
		<polyline class="st3" points="616.6,407.3 608.2,394 592,394 583.5,407.3 592,420.4 		"/>
		<line class="st3" x1="600" y1="407.3" x2="592" y2="394"/>
	</g>
	<g>
		<polygon class="st3" points="452.3,434.4 468.9,434.4 460.6,447.5 444.3,447.5 		"/>
		<polyline class="st3" points="468.9,434.4 460.5,421.1 444.3,421.1 435.9,434 444.3,447.5 		"/>
		<line class="st3" x1="452.3" y1="434.4" x2="444.3" y2="421.1"/>
	</g>
	<g>
		<polygon class="st3" points="420.3,408 436.7,408 444.3,421.1 428,421.6 		"/>
		<polyline class="st3" points="420.3,408 428.5,394.9 444.8,394.9 452.9,408 444.3,421.1 		"/>
		<line class="st3" x1="436.7" y1="408" x2="444.8" y2="394.9"/>
	</g>
	<g>
		<polygon class="st3" points="410.9,474.2 427.3,474.2 435.4,487.6 419,487.4 		"/>
		<polyline class="st3" points="410.9,474.2 419.1,461 435.4,461 443.5,474.2 435.4,487.6 		"/>
		<line class="st3" x1="427.3" y1="474.2" x2="435.4" y2="461"/>
	</g>
	<g>
		<polygon class="st3" points="590.9,473.3 607.4,473.3 615.5,486.7 599,486.5 		"/>
		<polyline class="st3" points="590.9,473.3 599.1,460.1 615.5,460.1 623.5,473.3 615.5,486.7 		"/>
		<line class="st3" x1="607.4" y1="473.3" x2="615.5" y2="460.1"/>
	</g>
	<g>
		<polygon class="st3" points="640.1,447.9 656.5,447.9 664.6,461.3 648.1,461.1 		"/>
		<polyline class="st3" points="640.1,447.9 648.3,434.7 664.6,434.7 672.7,447.9 664.6,461.3 		"/>
		<line class="st3" x1="656.5" y1="447.9" x2="664.6" y2="434.7"/>
	</g>
	<g>
		<polygon class="st3" points="345.4,420.6 362.2,421.1 370.4,434.3 354,434.3 		"/>
		<polyline class="st3" points="345.4,420.6 353.9,408 370.3,408 378.3,421.1 370.4,434.3 		"/>
		<line class="st3" x1="362.2" y1="421.1" x2="370.3" y2="408"/>
	</g>
	<g>
		<polygon class="st3" points="721.6,447.8 738,447.8 746.1,461.2 729.7,461 		"/>
		<polyline class="st3" points="721.6,447.8 729.8,434.6 746.1,434.6 754.2,447.8 746.1,461.2 		"/>
		<line class="st3" x1="738" y1="447.8" x2="746.1" y2="434.6"/>
	</g>
	<g>
		<polygon class="st3" points="656.5,419.4 673,419.4 681.1,432.8 664.6,432.6 		"/>
		<polyline class="st3" points="656.5,419.4 664.8,406.2 681.1,406.2 689.2,419.4 681.1,432.8 		"/>
		<line class="st3" x1="673" y1="419.4" x2="681.1" y2="406.2"/>
	</g>
	<g>
		<polyline class="st3" points="395,447.5 411.3,447.5 419.6,434.4 435.9,434 427.7,447.2 444.3,447.5 435.4,461 419.1,461 
			410.9,474.2 395.1,474.3 403.1,460.8 386.8,460.8 		"/>
		<polyline class="st3" points="444.3,447.5 428,421.6 411.4,421.6 402.8,434.4 386.5,434.3 		"/>
		<line class="st3" x1="411.3" y1="447.5" x2="402.8" y2="434.4"/>
		<line class="st3" x1="419.6" y1="434.4" x2="411.4" y2="421.6"/>
	</g>
	<g>
		<polygon class="st3" points="640.8,420.2 656.4,420.2 632.7,460.1 616.4,460.1 624.4,446.6 608,446.6 616.2,433.3 632.5,433.3 		
			"/>
		<line class="st3" x1="600" y1="433.5" x2="616.2" y2="433.3"/>
		<polyline class="st3" points="608.4,420.2 624,420.2 632.7,407.4 649.3,407.4 665.6,433.3 		"/>
		<line class="st3" x1="616.2" y1="433.3" x2="608.4" y2="420.2"/>
		<line class="st3" x1="632.1" y1="433.3" x2="624.3" y2="420.2"/>
		<line class="st3" x1="640.7" y1="421" x2="632.9" y2="408"/>
	</g>
	<g>
		<polygon class="st3" points="279.6,473.5 296.3,473.5 287.6,460.4 304.8,460.3 295.9,447.1 280,447.1 271.5,433.6 255.1,433.6 
			263.2,447.1 246.8,447.1 255,460.4 271.3,460.4 		"/>
		<polyline class="st3" points="304.8,460.3 288.1,486.3 271.5,486.3 262.8,473.5 247.2,473.5 238.9,460.3 255.1,433.6 		"/>
		<line class="st3" x1="255" y1="460.4" x2="247.2" y2="473.5"/>
		<line class="st3" x1="271.3" y1="460.4" x2="262.8" y2="473.5"/>
		<line class="st3" x1="279.6" y1="473.5" x2="271.5" y2="486.3"/>
	</g>
	<g>
		<polyline class="st3" points="328.2,420.6 311.8,420.6 303.7,407.4 287.9,407.3 295.9,420.8 279.6,420.8 287.8,434.1 304.1,434.1 
			312.4,447.1 		"/>
		<polyline class="st3" points="320.8,460 304.8,460.3 295.9,447.1 280,447.1 271.5,433.6 287.9,407.3 		"/>
		<line class="st3" x1="287.8" y1="434.1" x2="280" y2="447.1"/>
		<line class="st3" x1="303.7" y1="434.1" x2="295.9" y2="447.1"/>
		<line class="st3" x1="312.3" y1="446.4" x2="304.8" y2="460.3"/>
	</g>
	<g>
		<polygon class="st3" points="312.8,473.4 329.4,473.4 321.1,460.3 304.8,460.3 		"/>
		<polyline class="st3" points="329.4,473.4 320.9,486.7 304.8,486.7 296.3,473.5 304.8,460.3 		"/>
		<line class="st3" x1="312.8" y1="473.4" x2="304.8" y2="486.7"/>
	</g>
	<g>
		<polygon class="st3" points="468.1,461.5 484.7,461.5 476.4,448.4 460.1,448.4 		"/>
		<polyline class="st3" points="484.7,461.5 476.2,474.8 460.1,474.8 451.5,461.5 460.1,448.4 		"/>
		<line class="st3" x1="468.1" y1="461.5" x2="460.1" y2="474.8"/>
	</g>
	<g>
		<polygon class="st3" points="303.7,407.4 320.1,407.4 328.2,394 311.8,394.2 		"/>
		<polyline class="st3" points="303.7,407.4 311.8,420.6 328.2,420.6 336.3,407.4 328.2,394 		"/>
		<line class="st3" x1="320.1" y1="407.4" x2="328.2" y2="420.6"/>
	</g>
	<g>
		<polygon class="st3" points="353.5,460.4 370.4,460.7 345.4,420.6 328.2,420.6 337.1,434.1 320.7,434.1 328.9,447.4 345.3,447.4 
					"/>
		<line class="st3" x1="312.8" y1="447.1" x2="328.9" y2="447.4"/>
		<polyline class="st3" points="321.1,460.4 336.7,460.4 345.4,473.2 362,473.2 370.4,460.7 		"/>
		<line class="st3" x1="328.9" y1="447.4" x2="321.1" y2="460.4"/>
		<polyline class="st3" points="337,460.4 345.3,447.4 362,447.3 		"/>
		<line class="st3" x1="353.5" y1="460.4" x2="345.4" y2="473.2"/>
	</g>
	<polyline class="st3" points="648.1,461.6 640.2,473.3 623.5,473.3 	"/>
	<line class="st3" x1="632.7" y1="460.1" x2="640.2" y2="473.3"/>
	<g>
		<polygon class="st3" points="550.1,460.3 518.5,460.3 526,473.4 558.6,473.4 		"/>
		<polyline class="st3" points="518.5,460.3 509.8,474.2 518,486.9 550.1,486.9 558.6,473.4 		"/>
		<line class="st3" x1="526" y1="473.4" x2="518" y2="486.9"/>
	</g>
	<g>
		<polygon class="st3" points="704.8,448 673.2,448 680.7,461.1 713.3,461.1 		"/>
		<polyline class="st3" points="673.2,448 664.5,461.9 672.7,474.6 704.8,474.6 713.3,461.1 		"/>
		<line class="st3" x1="680.7" y1="461.1" x2="672.7" y2="474.6"/>
	</g>
	<g>
		<polygon class="st3" points="485.8,460.5 502.1,460.5 518.2,487.2 502,487.2 		"/>
		<polyline class="st3" points="485.8,460.5 477.8,474.1 494.1,501.2 510,501.2 518.2,487.2 		"/>
		<line class="st3" x1="502" y1="487.2" x2="494.1" y2="501.2"/>
	</g>
	<g>
		<polygon class="st3" points="697.2,407.4 713.5,407.4 729.6,434.1 713.4,434.1 		"/>
		<polyline class="st3" points="697.2,407.4 689.2,421 705.5,448.1 721.4,448.1 729.6,434.1 		"/>
		<line class="st3" x1="713.4" y1="434.1" x2="705.5" y2="448.1"/>
	</g>
	<path class="st4" d="M849.4,394.3"/>
	<path class="st4" d="M849.2,395.4"/>
	<path class="st4" d="M849.2,395.4"/>
	<path class="st4" d="M903.1,393.3"/>
	<path class="st4" d="M903,394.4"/>
	<g>
		<polygon class="st3" points="1025,461.6 1040.6,461.6 1033,448.5 1049.8,448.5 1041.3,435 1024.6,435 1016.9,421.7 1000.6,421.7 
			1008.6,435.2 992.2,435.2 1000.4,448.5 1016.7,448.5 		"/>
		<polyline class="st3" points="1049.8,448.5 1033.5,474.4 1016.9,474.4 1008.2,461.6 992.6,461.6 984.2,448.3 1000.6,421.7 		"/>
		<line class="st3" x1="1000.4" y1="448.5" x2="992.6" y2="461.6"/>
		<line class="st3" x1="1016.3" y1="448.5" x2="1008.5" y2="461.6"/>
		<line class="st3" x1="1024.9" y1="460.8" x2="1017.1" y2="473.9"/>
	</g>
	<g>
		<polyline class="st3" points="1074.1,408.7 1057.3,408.7 1049.6,395.4 1033.3,395.4 1041.4,408.9 1025,408.9 1033.2,422.2 
			1049.5,422.2 1057.8,435.3 		"/>
		<polyline class="st3" points="1066.2,448.1 1049.6,448.1 1041,435.3 1025.4,435.3 1017,422 1033.3,395.4 		"/>
		<line class="st3" x1="1033.2" y1="422.2" x2="1025.4" y2="435.3"/>
		<line class="st3" x1="1049.1" y1="422.2" x2="1041.3" y2="435.3"/>
		<line class="st3" x1="1057.7" y1="434.5" x2="1049.9" y2="447.5"/>
	</g>
	<g>
		<polygon class="st3" points="901.4,421.2 918,421.2 909.7,408.1 893.4,408.1 		"/>
		<polyline class="st3" points="918,421.2 909.5,434.5 893.4,434.5 885,421.5 893.4,408.1 		"/>
		<line class="st3" x1="901.4" y1="421.2" x2="893.4" y2="434.5"/>
	</g>
	<g>
		<polygon class="st3" points="1058.2,461.5 1074.8,461.5 1066.5,448.4 1050.2,448.4 		"/>
		<polyline class="st3" points="1074.8,461.5 1066.3,474.8 1050.2,474.8 1041.6,461.5 1050.2,448.4 		"/>
		<line class="st3" x1="1058.2" y1="461.5" x2="1050.2" y2="474.8"/>
	</g>
	<g>
		<polygon class="st3" points="975.4,434.4 992,434.4 983.6,421.3 967.4,421.3 		"/>
		<polyline class="st3" points="992,434.4 983.5,447.7 967.4,447.7 958.9,434.7 967.4,421.3 		"/>
		<line class="st3" x1="975.4" y1="434.4" x2="967.4" y2="447.7"/>
	</g>
	<g>
		<polygon class="st3" points="943.3,460.7 959.7,460.7 967.4,447.7 951,447.1 		"/>
		<polyline class="st3" points="943.3,460.7 951.5,473.9 967.8,473.9 975.9,460.7 967.4,447.7 		"/>
		<line class="st3" x1="959.7" y1="460.7" x2="967.8" y2="473.9"/>
	</g>
	<g>
		<polygon class="st3" points="933.9,394.6 950.3,394.6 958.4,381.2 942,381.4 		"/>
		<polyline class="st3" points="933.9,394.6 942.1,407.8 958.4,407.8 966.5,394.6 958.4,381.2 		"/>
		<line class="st3" x1="950.3" y1="394.6" x2="958.4" y2="407.8"/>
	</g>
	<g>
		<polygon class="st3" points="1049.1,395.5 1065.5,395.5 1073.6,382.1 1057.2,382.3 		"/>
		<polyline class="st3" points="1049.1,395.5 1057.3,408.7 1073.6,408.7 1081.7,395.5 1073.6,382.1 		"/>
		<line class="st3" x1="1065.5" y1="395.5" x2="1073.6" y2="408.7"/>
	</g>
	<g>
		<polygon class="st3" points="1098.2,420.9 1114.6,420.9 1122.7,407.5 1106.3,407.7 		"/>
		<polyline class="st3" points="1098.2,420.9 1106.4,434 1122.7,434 1130.8,420.9 1122.7,407.5 		"/>
		<line class="st3" x1="1114.6" y1="420.9" x2="1122.7" y2="434"/>
	</g>
	<g>
		<polygon class="st3" points="868.4,448.2 885.2,447.6 893.4,434.5 877,434.4 		"/>
		<polyline class="st3" points="868.4,448.2 877,460.8 893.3,460.8 901.4,447.6 893.4,434.5 		"/>
		<line class="st3" x1="885.2" y1="447.6" x2="893.3" y2="460.8"/>
	</g>
	<g>
		<polygon class="st3" points="1165.9,393.7 1182.4,393.7 1190.5,380.3 1174,380.5 		"/>
		<polyline class="st3" points="1165.9,393.7 1174.1,406.9 1190.5,406.9 1198.5,393.7 1190.5,380.3 		"/>
		<line class="st3" x1="1182.4" y1="393.7" x2="1190.5" y2="406.9"/>
	</g>
	<g>
		<polygon class="st3" points="1114.7,449.3 1131.1,449.3 1139.2,436 1122.8,436.2 		"/>
		<polyline class="st3" points="1114.7,449.3 1122.9,462.5 1139.2,462.5 1147.3,449.3 1139.2,436 		"/>
		<line class="st3" x1="1131.1" y1="449.3" x2="1139.2" y2="462.5"/>
	</g>
	<g>
		<polyline class="st3" points="918,421.3 934.3,421.3 942.6,434.3 958.9,434.7 950.8,421.6 967.4,421.3 958.4,407.8 942.1,407.8 
			933.9,394.6 918.1,394.5 926.2,408 909.8,408 		"/>
		<polyline class="st3" points="967.4,421.3 951,447.1 934.4,447.1 925.8,434.3 909.5,434.5 		"/>
		<line class="st3" x1="934.3" y1="421.3" x2="925.8" y2="434.3"/>
		<line class="st3" x1="942.6" y1="434.3" x2="934.4" y2="447.1"/>
	</g>
	<g>
		<polygon class="st3" points="1099,448.5 1114.5,448.5 1090.8,408.7 1074.5,408.7 1082.5,422.2 1066.2,422.2 1074.3,435.5 
			1090.7,435.5 		"/>
		<line class="st3" x1="1058.2" y1="435.3" x2="1074.3" y2="435.5"/>
		<polyline class="st3" points="1066.5,448.5 1082.1,448.5 1090.8,461.3 1107.4,461.3 1123.7,435.5 		"/>
		<line class="st3" x1="1074.3" y1="435.5" x2="1066.5" y2="448.5"/>
		<line class="st3" x1="1090.3" y1="435.5" x2="1082.4" y2="448.5"/>
		<line class="st3" x1="1098.9" y1="447.8" x2="1091" y2="460.8"/>
	</g>
	<g>
		<polygon class="st3" points="802.6,395.3 819.3,395.3 810.6,408.4 827.8,408.5 818.9,421.6 803,421.6 794.5,435.2 778.2,435.2 
			786.2,421.7 769.8,421.7 778,408.4 794.3,408.4 		"/>
		<polyline class="st3" points="827.8,408.5 811.1,382.5 794.5,382.5 785.8,395.3 770.2,395.3 761.9,408.4 778.2,435.2 		"/>
		<line class="st3" x1="778" y1="408.4" x2="770.2" y2="395.3"/>
		<line class="st3" x1="794.3" y1="408.4" x2="785.8" y2="395.3"/>
		<line class="st3" x1="802.6" y1="395.3" x2="794.5" y2="382.5"/>
	</g>
	<g>
		<polyline class="st3" points="851.2,448.1 834.9,448.1 826.7,461.4 810.9,461.5 819,448 802.6,448 810.8,434.7 827.1,434.7 
			835.4,421.6 		"/>
		<polyline class="st3" points="843.8,408.8 827.8,408.5 818.9,421.6 803,421.6 794.5,435.2 810.9,461.5 		"/>
		<line class="st3" x1="810.8" y1="434.7" x2="803" y2="421.6"/>
		<line class="st3" x1="826.7" y1="434.7" x2="818.9" y2="421.6"/>
		<line class="st3" x1="835.3" y1="422.4" x2="827.8" y2="408.5"/>
	</g>
	<g>
		<polygon class="st3" points="835.8,395.4 852.4,395.4 844.1,408.5 827.8,408.5 		"/>
		<polyline class="st3" points="852.4,395.4 844,382.1 827.8,382.1 819.3,395.3 827.8,408.5 		"/>
		<line class="st3" x1="835.8" y1="395.4" x2="827.8" y2="382.1"/>
	</g>
	<g>
		<polygon class="st3" points="794.3,461.2 810.9,461.2 802.6,474.3 786.3,474.3 		"/>
		<polyline class="st3" points="810.9,461.2 802.5,447.9 786.3,447.9 777.7,461.2 786.3,474.3 		"/>
		<line class="st3" x1="794.3" y1="461.2" x2="786.3" y2="447.9"/>
	</g>
	<g>
		<polygon class="st3" points="826.7,461.4 843.1,461.4 851.2,474.8 834.8,474.6 		"/>
		<polyline class="st3" points="826.7,461.4 834.9,448.1 851.2,448.1 859.3,461.4 851.2,474.8 		"/>
		<line class="st3" x1="843.1" y1="461.4" x2="851.2" y2="448.1"/>
	</g>
	<g>
		<polygon class="st3" points="721.9,395.1 738.3,395.1 746.4,408.5 729.8,408.4 		"/>
		<polyline class="st3" points="721.9,395.1 730.1,381.9 746.4,381.9 754.5,395.1 746.4,408.5 		"/>
		<line class="st3" x1="738.3" y1="395.1" x2="746.4" y2="381.9"/>
	</g>
	<g>
		<polygon class="st3" points="876.6,408.3 893.4,408.1 868.4,448.2 851.2,448.1 860.1,434.7 843.8,434.7 852,421.4 868.3,421.4 		
			"/>
		<line class="st3" x1="835.8" y1="421.6" x2="852" y2="421.4"/>
		<polyline class="st3" points="844.1,408.3 859.8,408.3 868.4,395.5 885,395.5 893.4,408.1 		"/>
		<line class="st3" x1="852" y1="421.4" x2="844.1" y2="408.3"/>
		<polyline class="st3" points="860,408.3 868.3,421.4 885,421.5 		"/>
		<line class="st3" x1="876.6" y1="408.3" x2="868.4" y2="395.5"/>
	</g>
	<polyline class="st3" points="1106.3,407.2 1098.4,395.5 1081.7,395.5 	"/>
	<line class="st3" x1="1090.8" y1="408.7" x2="1098.4" y2="395.5"/>
	<g>
		<polygon class="st3" points="1012.4,400.6 980.9,400.6 988.3,387.5 1020.9,387.5 		"/>
		<polyline class="st3" points="980.9,400.6 972.1,386.7 980.3,374 1012.4,374 1020.9,387.5 		"/>
		<line class="st3" x1="988.3" y1="387.5" x2="980.3" y2="374"/>
	</g>
	<g>
		<polygon class="st3" points="761.9,435 730.4,435 737.8,422 769.8,421.7 		"/>
		<polyline class="st3" points="730.4,435 721.6,421.1 729.8,408.4 761.9,408.4 769.9,421.6 		"/>
		<line class="st3" x1="737.8" y1="422" x2="729.8" y2="408.4"/>
	</g>
	<g>
		<polygon class="st3" points="1141.5,434.1 1157.8,434.1 1174,407.4 1157.8,407.4 		"/>
		<polyline class="st3" points="1141.5,434.1 1133.5,420.5 1149.9,393.4 1165.8,393.4 1174,407.4 		"/>
		<line class="st3" x1="1157.8" y1="407.4" x2="1149.9" y2="393.4"/>
	</g>
</g>
<g>
	<path class="st3" d="M46,534.2"/>
	<path class="st3" d="M45.9,533.1"/>
	<path class="st3" d="M45.9,533.1"/>
	<path class="st3" d="M99.8,535.1"/>
	<path class="st3" d="M99.6,534"/>
	<g>
		<polygon class="st3" points="286.5,466.9 302.1,466.9 294.6,479.9 311.3,479.9 302.8,493.4 286.1,493.4 278.4,506.7 262.1,506.7 
			270.1,493.2 253.7,493.2 261.9,479.9 278.2,479.9 		"/>
		<polyline class="st3" points="311.3,479.9 295,454.1 278.4,454.1 269.7,466.9 254.1,466.9 245.8,480.2 262.1,506.7 		"/>
		<line class="st3" x1="261.9" y1="479.9" x2="254.1" y2="466.9"/>
		<line class="st3" x1="277.8" y1="479.9" x2="270" y2="466.9"/>
		<line class="st3" x1="286.4" y1="467.7" x2="278.6" y2="454.6"/>
	</g>
	<g>
		<polyline class="st3" points="335.6,519.8 318.9,519.8 311.2,533.1 294.9,533.1 302.9,519.6 286.5,519.6 294.7,506.3 311,506.3 
			319.3,493.2 		"/>
		<polyline class="st3" points="327.8,480.4 311.2,480.4 302.5,493.2 286.9,493.2 278.6,506.5 294.9,533.1 		"/>
		<line class="st3" x1="294.7" y1="506.3" x2="286.9" y2="493.2"/>
		<line class="st3" x1="310.6" y1="506.3" x2="302.8" y2="493.2"/>
		<line class="st3" x1="319.2" y1="494" x2="311.4" y2="480.9"/>
	</g>
	<g>
		<polygon class="st3" points="205.2,466.9 221.5,466.9 229.3,480.2 245.8,480.2 254.6,494 237.4,494 246.2,506.3 229.3,506.3 
			221.5,493.4 205.2,493.4 196.9,479.9 213.2,479.9 		"/>
		<polyline class="st3" points="205.2,466.9 188.5,493.2 196.7,506.3 213.2,506.3 221.5,520 238.2,520 254.6,494 		"/>
		<line class="st3" x1="205.2" y1="493.4" x2="196.7" y2="506.3"/>
		<line class="st3" x1="221.9" y1="494" x2="213.5" y2="506.8"/>
		<line class="st3" x1="229.9" y1="506.7" x2="221.5" y2="519.5"/>
	</g>
	<g>
		<polygon class="st3" points="229.5,453.6 246.1,453.6 237.8,466.7 221.5,466.7 		"/>
		<polyline class="st3" points="246.1,453.6 237.6,440.3 221.5,440.3 212.9,453.6 221.5,466.7 		"/>
		<line class="st3" x1="229.5" y1="453.6" x2="221.5" y2="440.3"/>
	</g>
	<g>
		<polygon class="st3" points="98,507.3 114.6,507.3 106.3,520.4 90,520.4 		"/>
		<polyline class="st3" points="114.6,507.3 106.2,494 90,494 81.7,507 90,520.4 		"/>
		<line class="st3" x1="98" y1="507.3" x2="90" y2="494"/>
	</g>
	<g>
		<polygon class="st3" points="319.7,467 336.3,467 328,480.1 311.7,480.1 		"/>
		<polyline class="st3" points="336.3,467 327.9,453.7 311.7,453.7 303.1,467 311.7,480.1 		"/>
		<line class="st3" x1="319.7" y1="467" x2="311.7" y2="453.7"/>
	</g>
	<g>
		<polygon class="st3" points="172,494.1 188.6,494.1 180.3,507.2 164,507.2 		"/>
		<polyline class="st3" points="188.6,494.1 180.2,480.8 164,480.8 155.5,493.7 164,507.2 		"/>
		<line class="st3" x1="172" y1="494.1" x2="164" y2="480.8"/>
	</g>
	<g>
		<polygon class="st3" points="140,467.7 156.4,467.7 164,480.8 147.7,481.3 		"/>
		<polyline class="st3" points="140,467.7 148.2,454.5 164.5,454.5 172.6,467.7 164,480.8 		"/>
		<line class="st3" x1="156.4" y1="467.7" x2="164.5" y2="454.5"/>
	</g>
	<g>
		<polygon class="st3" points="130.5,533.9 147,533.9 155.1,547.3 138.6,547.1 		"/>
		<polyline class="st3" points="130.5,533.9 138.8,520.7 155.1,520.7 163.2,533.9 155.1,547.3 		"/>
		<line class="st3" x1="147" y1="533.9" x2="155.1" y2="520.7"/>
	</g>
	<g>
		<polygon class="st3" points="310.6,533 327,533 335.1,546.3 318.7,546.1 		"/>
		<polyline class="st3" points="310.6,533 318.8,519.8 335.1,519.8 343.2,533 335.1,546.3 		"/>
		<line class="st3" x1="327" y1="533" x2="335.1" y2="519.8"/>
	</g>
	<g>
		<polygon class="st3" points="359.7,507.6 376.2,507.6 384.3,521 367.8,520.8 		"/>
		<polyline class="st3" points="359.7,507.6 367.9,494.4 384.3,494.4 392.3,507.6 384.3,521 		"/>
		<line class="st3" x1="376.2" y1="507.6" x2="384.3" y2="494.4"/>
	</g>
	<g>
		<polygon class="st3" points="65.1,480.3 81.8,480.8 90,494 73.6,494 		"/>
		<polyline class="st3" points="65.1,480.3 73.6,467.7 89.9,467.7 98,480.8 90,494 		"/>
		<line class="st3" x1="81.8" y1="480.8" x2="89.9" y2="467.7"/>
	</g>
	<g>
		<polygon class="st3" points="441.2,507.5 457.7,507.5 465.8,520.9 449.3,520.7 		"/>
		<polyline class="st3" points="441.2,507.5 449.4,494.3 465.8,494.3 473.8,507.5 465.8,520.9 		"/>
		<line class="st3" x1="457.7" y1="507.5" x2="465.8" y2="494.3"/>
	</g>
	<g>
		<polygon class="st3" points="376.2,479.1 392.6,479.1 400.7,492.5 384.3,492.3 		"/>
		<polyline class="st3" points="376.2,479.1 384.4,465.9 400.7,465.9 408.8,479.1 400.7,492.5 		"/>
		<line class="st3" x1="392.6" y1="479.1" x2="400.7" y2="465.9"/>
	</g>
	<g>
		<polyline class="st3" points="114.6,507.2 130.9,507.2 139.2,494.1 155.5,493.7 147.4,506.9 164,507.2 155.1,520.7 138.8,520.7 
			130.5,533.9 114.8,534 122.8,520.5 106.4,520.5 		"/>
		<polyline class="st3" points="164,507.2 147.7,481.3 131.1,481.3 122.4,494.1 106.2,494 		"/>
		<line class="st3" x1="130.9" y1="507.2" x2="122.4" y2="494.1"/>
		<line class="st3" x1="139.2" y1="494.1" x2="131.1" y2="481.3"/>
	</g>
	<g>
		<polygon class="st3" points="360.5,479.9 376,479.9 352.3,519.8 336,519.8 344,506.3 327.7,506.3 335.9,493 352.2,493 		"/>
		<line class="st3" x1="319.7" y1="493.2" x2="335.9" y2="493"/>
		<polyline class="st3" points="328.1,479.9 343.7,479.9 352.3,467.1 368.9,467.1 385.3,493 		"/>
		<line class="st3" x1="335.9" y1="493" x2="328.1" y2="479.9"/>
		<line class="st3" x1="351.8" y1="493" x2="344" y2="479.9"/>
		<line class="st3" x1="360.4" y1="480.7" x2="352.6" y2="467.7"/>
	</g>
	<g>
		<polygon class="st3" points="-0.7,533.2 15.9,533.2 7.3,520.1 24.4,520 15.5,506.8 -0.4,506.8 -8.9,493.3 -25.2,493.3 -9,520.1 		
			"/>
		<polyline class="st3" points="24.4,520 7.7,546 -8.9,546 -33.1,506.4 -25.2,493.3 		"/>
		<path class="st3" d="M-17.5,533.2"/>
		<line class="st3" x1="-0.7" y1="533.2" x2="-8.9" y2="546"/>
	</g>
	<g>
		<polyline class="st3" points="47.8,480.3 31.5,480.3 23.3,467.1 7.6,467 15.6,480.5 -0.8,480.5 7.4,493.8 23.8,493.8 32,506.8 		
			"/>
		<polyline class="st3" points="40.5,519.6 24.4,520 15.5,506.8 -0.4,506.8 -8.9,493.3 7.6,467 		"/>
		<line class="st3" x1="7.4" y1="493.8" x2="-0.4" y2="506.8"/>
		<line class="st3" x1="23.4" y1="493.8" x2="15.5" y2="506.8"/>
		<line class="st3" x1="32" y1="506.1" x2="24.4" y2="520"/>
	</g>
	<g>
		<polygon class="st3" points="32.5,533.1 49,533.1 40.7,520 24.4,520 		"/>
		<polyline class="st3" points="49,533.1 40.6,546.3 24.4,546.3 15.9,533.2 24.4,520 		"/>
		<line class="st3" x1="32.5" y1="533.1" x2="24.4" y2="546.3"/>
	</g>
	<g>
		<polygon class="st3" points="187.8,521.2 204.4,521.2 196,508.1 179.8,508.1 		"/>
		<polyline class="st3" points="204.4,521.2 195.9,534.4 179.8,534.4 171.2,521.2 179.8,508.1 		"/>
		<line class="st3" x1="187.8" y1="521.2" x2="179.8" y2="534.4"/>
	</g>
	<g>
		<polygon class="st3" points="23.3,467.1 39.8,467.1 47.9,453.7 31.4,453.9 		"/>
		<polyline class="st3" points="23.3,467.1 31.5,480.3 47.8,480.3 55.9,467.1 47.9,453.7 		"/>
		<line class="st3" x1="39.8" y1="467.1" x2="47.8" y2="480.3"/>
	</g>
	<g>
		<polygon class="st3" points="-33.1,532.7 -16.7,532.7 -9.5,519.4 -25.1,519.5 		"/>
		<polyline class="st3" points="-33.1,532.7 -25,546 -8.6,546 -0.7,533.2 -9.5,519.4 		"/>
		<line class="st3" x1="-16.7" y1="532.7" x2="-8.6" y2="546"/>
	</g>
	<g>
		<polygon class="st3" points="73.2,520.1 90,520.4 65.1,480.3 47.8,480.3 56.8,493.8 40.4,493.8 48.6,507.1 64.9,507.1 		"/>
		<line class="st3" x1="32.5" y1="506.8" x2="48.6" y2="507.1"/>
		<polyline class="st3" points="40.8,520.1 56.4,520.1 65.1,532.9 81.7,532.9 90,520.4 		"/>
		<line class="st3" x1="48.6" y1="507.1" x2="40.8" y2="520.1"/>
		<polyline class="st3" points="56.7,520.1 64.9,507.1 81.7,507 		"/>
		<line class="st3" x1="73.2" y1="520.1" x2="65.1" y2="532.9"/>
	</g>
	<polyline class="st3" points="367.8,521.3 359.9,533 343.2,533 	"/>
	<line class="st3" x1="352.3" y1="519.8" x2="359.9" y2="533"/>
	<g>
		<polygon class="st3" points="269.7,520 238.2,520 245.6,533.1 278.2,533.1 		"/>
		<polyline class="st3" points="238.2,520 229.5,533.9 237.6,546.6 269.7,546.6 278.2,533.1 		"/>
		<line class="st3" x1="245.6" y1="533.1" x2="237.6" y2="546.6"/>
	</g>
	<g>
		<polygon class="st3" points="424.4,507.7 392.9,507.7 400.3,520.8 432.9,520.8 		"/>
		<polyline class="st3" points="392.9,507.7 384.2,521.6 392.3,534.3 424.4,534.3 432.9,520.8 		"/>
		<line class="st3" x1="400.3" y1="520.8" x2="392.3" y2="534.3"/>
	</g>
	<g>
		<polygon class="st3" points="205.4,520.2 221.7,520.2 237.9,546.9 221.7,546.9 		"/>
		<polyline class="st3" points="205.4,520.2 197.4,533.8 213.8,560.9 229.7,560.9 237.9,546.9 		"/>
		<line class="st3" x1="221.7" y1="546.9" x2="213.8" y2="560.9"/>
	</g>
	<g>
		<polygon class="st3" points="416.8,467.1 433.1,467.1 449.3,493.8 433.1,493.8 		"/>
		<polyline class="st3" points="416.8,467.1 408.9,480.7 425.2,507.8 441.1,507.8 449.3,493.8 		"/>
		<line class="st3" x1="433.1" y1="493.8" x2="425.2" y2="507.8"/>
	</g>
	<path class="st3" d="M569,454"/>
	<path class="st3" d="M568.9,455.1"/>
	<path class="st3" d="M568.9,455.1"/>
	<path class="st3" d="M622.8,453"/>
	<path class="st3" d="M622.6,454.1"/>
	<g>
		<polygon class="st3" points="744.7,521.3 760.2,521.3 752.7,508.2 769.5,508.2 761,494.7 744.2,494.7 736.5,481.4 720.2,481.4 
			728.3,494.9 711.9,494.9 720.1,508.2 736.4,508.2 		"/>
		<polyline class="st3" points="769.5,508.2 753.1,534.1 736.5,534.1 727.9,521.3 712.3,521.3 703.9,508 720.2,481.4 		"/>
		<line class="st3" x1="720.1" y1="508.2" x2="712.3" y2="521.3"/>
		<line class="st3" x1="736" y1="508.2" x2="728.2" y2="521.3"/>
		<line class="st3" x1="744.6" y1="520.5" x2="736.8" y2="533.5"/>
	</g>
	<g>
		<polyline class="st3" points="793.8,468.4 777,468.4 769.3,455.1 753,455.1 761,468.6 744.7,468.6 752.9,481.9 769.2,481.9 
			777.5,494.9 		"/>
		<polyline class="st3" points="785.9,507.8 769.3,507.8 760.6,494.9 745,494.9 736.7,481.7 753,455.1 		"/>
		<line class="st3" x1="752.9" y1="481.9" x2="745" y2="494.9"/>
		<line class="st3" x1="768.8" y1="481.9" x2="760.9" y2="494.9"/>
		<line class="st3" x1="777.4" y1="494.2" x2="769.5" y2="507.2"/>
	</g>
	<g>
		<polygon class="st3" points="621.1,480.9 637.6,480.9 629.3,467.8 613,467.8 		"/>
		<polyline class="st3" points="637.6,480.9 629.2,494.2 613,494.2 604.7,481.2 613,467.8 		"/>
		<line class="st3" x1="621.1" y1="480.9" x2="613" y2="494.2"/>
	</g>
	<g>
		<polygon class="st3" points="777.9,521.2 794.5,521.2 786.1,508.1 769.9,508.1 		"/>
		<polyline class="st3" points="794.5,521.2 786,534.5 769.9,534.5 761.3,521.2 769.9,508.1 		"/>
		<line class="st3" x1="777.9" y1="521.2" x2="769.9" y2="534.5"/>
	</g>
	<g>
		<polygon class="st3" points="695,494.1 711.6,494.1 703.3,481 687,481 		"/>
		<polyline class="st3" points="711.6,494.1 703.2,507.3 687,507.3 678.5,494.4 687,481 		"/>
		<line class="st3" x1="695" y1="494.1" x2="687" y2="507.3"/>
	</g>
	<g>
		<polygon class="st3" points="663,520.4 679.4,520.4 687,507.3 670.7,506.8 		"/>
		<polyline class="st3" points="663,520.4 671.2,533.6 687.5,533.6 695.6,520.4 687,507.3 		"/>
		<line class="st3" x1="679.4" y1="520.4" x2="687.5" y2="533.6"/>
	</g>
	<g>
		<polygon class="st3" points="653.6,454.3 670,454.3 678.1,440.9 661.7,441.1 		"/>
		<polyline class="st3" points="653.6,454.3 661.8,467.5 678.1,467.5 686.2,454.3 678.1,440.9 		"/>
		<line class="st3" x1="670" y1="454.3" x2="678.1" y2="467.5"/>
	</g>
	<g>
		<polygon class="st3" points="768.7,455.2 785.2,455.2 793.3,441.8 776.8,442 		"/>
		<polyline class="st3" points="768.7,455.2 777,468.4 793.3,468.4 801.3,455.2 793.3,441.8 		"/>
		<line class="st3" x1="785.2" y1="455.2" x2="793.3" y2="468.4"/>
	</g>
	<g>
		<polygon class="st3" points="817.9,480.5 834.3,480.5 842.4,467.2 826,467.4 		"/>
		<polyline class="st3" points="817.9,480.5 826.1,493.7 842.4,493.7 850.5,480.5 842.4,467.2 		"/>
		<line class="st3" x1="834.3" y1="480.5" x2="842.4" y2="493.7"/>
	</g>
	<g>
		<polygon class="st3" points="588.1,507.9 604.8,507.3 613,494.2 596.6,494.1 		"/>
		<polyline class="st3" points="588.1,507.9 596.6,520.5 612.9,520.5 621,507.3 613,494.2 		"/>
		<line class="st3" x1="604.8" y1="507.3" x2="612.9" y2="520.5"/>
	</g>
	<g>
		<polygon class="st3" points="858.7,521.4 875.1,521.4 883.2,508 866.8,508.2 		"/>
		<polyline class="st3" points="858.7,521.4 866.9,534.6 883.2,534.6 891.3,521.4 883.2,508 		"/>
		<line class="st3" x1="875.1" y1="521.4" x2="883.2" y2="534.6"/>
	</g>
	<g>
		<polygon class="st3" points="834.2,508.3 850.6,508.3 858.7,494.9 842.3,495.1 		"/>
		<polyline class="st3" points="834.2,508.3 842.4,521.5 858.7,521.5 866.8,508.3 858.7,494.9 		"/>
		<line class="st3" x1="850.6" y1="508.3" x2="858.7" y2="521.5"/>
	</g>
	<g>
		<polyline class="st3" points="637.6,481 654,481 662.3,494 678.5,494.4 670.4,481.2 687,481 678.1,467.5 661.8,467.5 653.6,454.3 
			637.8,454.2 645.8,467.7 629.5,467.7 		"/>
		<polyline class="st3" points="687,481 670.7,506.8 654.1,506.8 645.4,494 629.2,494.2 		"/>
		<line class="st3" x1="654" y1="481" x2="645.4" y2="494"/>
		<line class="st3" x1="662.3" y1="494" x2="654.1" y2="506.8"/>
	</g>
	<g>
		<polygon class="st3" points="818.6,508.2 834.2,508.2 810.5,468.4 794.2,468.4 802.2,481.9 785.8,481.9 794,495.2 810.3,495.2 		
			"/>
		<line class="st3" x1="777.9" y1="494.9" x2="794" y2="495.2"/>
		<polyline class="st3" points="786.2,508.2 801.8,508.2 810.5,521 827.1,521 834.2,508.2 		"/>
		<line class="st3" x1="794" y1="495.2" x2="786.2" y2="508.2"/>
		<line class="st3" x1="809.9" y1="495.2" x2="802.1" y2="508.2"/>
		<line class="st3" x1="818.5" y1="507.5" x2="810.7" y2="520.5"/>
	</g>
	<g>
		<polygon class="st3" points="522.3,455 539,455 530.3,468 547.5,468.2 538.6,481.3 522.6,481.3 514.1,494.8 497.8,494.8 
			505.9,481.4 489.5,481.4 497.7,468 514,468 		"/>
		<polyline class="st3" points="547.5,468.2 530.7,442.2 514.1,442.2 505.5,455 489.9,455 481.6,468.1 497.8,494.8 		"/>
		<line class="st3" x1="497.7" y1="468" x2="489.9" y2="455"/>
		<line class="st3" x1="514" y1="468" x2="505.5" y2="455"/>
		<line class="st3" x1="522.3" y1="455" x2="514.1" y2="442.2"/>
	</g>
	<g>
		<polyline class="st3" points="570.9,507.8 554.5,507.8 546.4,521.1 530.6,521.2 538.6,507.7 522.3,507.7 530.5,494.4 546.8,494.4 
			555.1,481.3 		"/>
		<polyline class="st3" points="563.5,468.5 547.5,468.2 538.6,481.3 522.6,481.3 514.1,494.8 530.6,521.2 		"/>
		<line class="st3" x1="530.5" y1="494.4" x2="522.6" y2="481.3"/>
		<line class="st3" x1="546.4" y1="494.4" x2="538.6" y2="481.3"/>
		<line class="st3" x1="555" y1="482.1" x2="547.5" y2="468.2"/>
	</g>
	<g>
		<polygon class="st3" points="555.5,455.1 572.1,455.1 563.8,468.2 547.5,468.2 		"/>
		<polyline class="st3" points="572.1,455.1 563.6,441.8 547.5,441.8 539,455 547.5,468.2 		"/>
		<line class="st3" x1="555.5" y1="455.1" x2="547.5" y2="441.8"/>
	</g>
	<g>
		<polygon class="st3" points="514,520.9 530.6,520.9 522.3,534 506,534 		"/>
		<polyline class="st3" points="530.6,520.9 522.2,507.6 506,507.6 497.4,520.9 506,534 		"/>
		<line class="st3" x1="514" y1="520.9" x2="506" y2="507.6"/>
	</g>
	<g>
		<polygon class="st3" points="546.4,521.1 562.8,521.1 570.9,534.5 554.4,534.3 		"/>
		<polyline class="st3" points="546.4,521.1 554.5,507.8 570.9,507.8 579,521.1 570.9,534.5 		"/>
		<line class="st3" x1="562.8" y1="521.1" x2="570.9" y2="507.8"/>
	</g>
	<g>
		<polygon class="st3" points="441.6,454.8 458,454.8 466.1,468.2 449.5,468.1 		"/>
		<polyline class="st3" points="441.6,454.8 449.8,441.6 466.1,441.6 474.2,454.8 466.1,468.2 		"/>
		<line class="st3" x1="458" y1="454.8" x2="466.1" y2="441.6"/>
	</g>
	<g>
		<polygon class="st3" points="596.2,468 613,467.8 588.1,507.9 570.9,507.8 579.8,494.4 563.4,494.4 571.6,481.1 587.9,481.1 		"/>
		<line class="st3" x1="555.5" y1="481.3" x2="571.6" y2="481.1"/>
		<polyline class="st3" points="563.8,468 579.4,468 588.1,455.2 604.7,455.2 613,467.8 		"/>
		<line class="st3" x1="571.6" y1="481.1" x2="563.8" y2="468"/>
		<polyline class="st3" points="579.7,468 587.9,481.1 604.7,481.2 		"/>
		<line class="st3" x1="596.2" y1="468" x2="588.1" y2="455.2"/>
	</g>
	<polyline class="st3" points="826,466.9 818.1,455.2 801.3,455.2 	"/>
	<line class="st3" x1="810.5" y1="468.4" x2="818.1" y2="455.2"/>
	<g>
		<polygon class="st3" points="732,460.3 700.5,460.3 707.9,447.2 740.6,447.2 		"/>
		<polyline class="st3" points="700.5,460.3 691.8,446.4 699.9,433.7 732,433.7 740.6,447.2 		"/>
		<line class="st3" x1="707.9" y1="447.2" x2="699.9" y2="433.7"/>
	</g>
	<g>
		<polygon class="st3" points="481.6,494.7 450.1,494.7 457.5,481.6 489.5,481.4 		"/>
		<polyline class="st3" points="450.1,494.7 441.3,480.8 449.5,468.1 481.6,468.1 489.6,481.2 		"/>
		<line class="st3" x1="457.5" y1="481.6" x2="449.5" y2="468.1"/>
	</g>
	<g>
		<polygon class="st3" points="858.9,494.2 875.2,494.2 891.4,467.5 875.1,467.5 		"/>
		<polyline class="st3" points="858.9,494.2 850.9,480.6 867.2,453.5 883.1,453.5 891.4,467.5 		"/>
		<line class="st3" x1="875.1" y1="467.5" x2="867.2" y2="453.5"/>
	</g>
</g>
</svg>
