<?xml version="1.0" encoding="utf-8"?>
<!-- Generator: Adobe Illustrator 26.4.0, SVG Export Plug-In . SVG Version: 6.00 Build 0)  -->
<svg version="1.1" id="Layer_1" xmlns="http://www.w3.org/2000/svg" xmlns:xlink="http://www.w3.org/1999/xlink" x="0px" y="0px"
	 viewBox="0 0 64.1 53" style="enable-background:new 0 0 64.1 53;" xml:space="preserve">
<style type="text/css">
	.st0{fill:#494949;}
</style>
<path class="st0" d="M63.9,27c0-0.1,0.1-0.2,0.1-0.3c0,0,0-0.1,0-0.1c0-0.1,0-0.2,0-0.3c0,0,0,0,0-0.1c0-0.1,0-0.2-0.1-0.4
	c0,0,0,0,0-0.1c0-0.1-0.1-0.2-0.1-0.3c0,0,0,0,0-0.1l-7.5-12.3c-0.3-0.4-0.7-0.7-1.3-0.7l-14.7,0.1L33.1,0.8
	c-0.3-0.4-0.8-0.7-1.3-0.7L16.5,0c0,0,0,0,0,0c-0.1,0-0.1,0-0.2,0c-0.2,0-0.5,0.1-0.7,0.3c0,0,0,0,0,0c-0.1,0.1-0.1,0.1-0.2,0.2
	c-0.1,0.1-0.1,0.2-0.2,0.2L0,26.1c-0.3,0.5-0.3,1.1,0,1.6l7.5,12.2c0.3,0.5,0.7,0.7,1.3,0.7l14.4-0.2l7.4,12c0,0,0,0,0,0
	c0.1,0.1,0.1,0.2,0.2,0.3c0,0,0,0,0,0c0.1,0.1,0.2,0.1,0.2,0.2c0,0,0,0,0,0c0.1,0,0.2,0.1,0.3,0.1c0,0,0.1,0,0.1,0
	c0.1,0,0.2,0,0.4,0.1c0,0,0,0,0,0c0,0,0,0,0,0s0,0,0,0h15.6c0.5,0,1-0.3,1.3-0.7L63.9,27C63.8,27.1,63.8,27.1,63.9,27
	C63.9,27,63.9,27,63.9,27C63.9,27,63.9,27,63.9,27z M55.1,35.8l-5.3-8.2l10.1,0.2L55.1,35.8z M30.9,3.1L38.2,15
	c0.3,0.5,0.8,0.7,1.3,0.7l14.7-0.1l5.7,9.2L47,24.6c0,0,0,0,0,0c-0.5,0-1,0.3-1.3,0.8c-0.3,0.5-0.2,1.1,0,1.5l6.6,10.2l-11.8,0.2
	L33,25.9c0,0,0,0,0,0c-0.1-0.1-0.1-0.2-0.2-0.3c0,0,0,0-0.1,0c0,0-0.1-0.1-0.2-0.1c0,0,0,0-0.1,0c0,0-0.1,0-0.1-0.1
	c-0.1,0-0.1-0.1-0.2-0.1c0,0-0.1,0-0.1,0c-0.1,0-0.2,0-0.2,0c0,0,0,0-0.1,0l-14.4-0.1l-5.8-9.5l12.6-0.2c0.5,0,1-0.3,1.3-0.8
	c0.3-0.5,0.2-1,0-1.5L19.2,3L30.9,3.1z M31.8,48.7l-6.1-9.9l6-9.3l6.1,9.4L31.8,48.7z M11.5,37.5l5.9-9.4L29,28.2l-5.9,9.2
	L11.5,37.5z M16.5,4.4l5,8.1l-9.9,0.1L16.5,4.4z M8.9,17.1l5.8,9.5l-6,9.6L3,26.8L8.9,17.1z M46.6,50h-12l6-9.7l12-0.2L46.6,50z"/>
</svg>
