<?xml version="1.0" encoding="utf-8"?>
<!-- Generator: Adobe Illustrator 26.4.0, SVG Export Plug-In . SVG Version: 6.00 Build 0)  -->
<svg version="1.1" id="Layer_1" xmlns="http://www.w3.org/2000/svg" xmlns:xlink="http://www.w3.org/1999/xlink" x="0px" y="0px"
	 viewBox="0 0 64.7 52.5" style="enable-background:new 0 0 64.7 52.5;" xml:space="preserve">
<style type="text/css">
	.st0{fill:#494949;}
</style>
<path class="st0" d="M64.6,26.7c0-0.1,0.1-0.2,0.1-0.3c0,0,0,0,0,0c0-0.1,0-0.2,0-0.3c0,0,0-0.1,0-0.1c0-0.1-0.1-0.2-0.1-0.3
	c0,0,0,0,0-0.1c0,0,0,0,0,0c0,0,0,0,0,0l-7.4-12c0-0.2-0.1-0.4-0.2-0.6c-0.1-0.2-0.3-0.4-0.6-0.6L49,0.6c-0.3-0.4-0.8-0.7-1.3-0.7
	H32.3c0,0,0,0-0.1,0c-0.1,0-0.2,0-0.3,0c0,0-0.1,0-0.1,0c-0.1,0-0.1,0.1-0.2,0.1c0,0-0.1,0-0.1,0.1c0,0,0,0-0.1,0
	c-0.1,0-0.1,0.1-0.2,0.1c0,0,0,0-0.1,0.1c-0.1,0.1-0.2,0.2-0.2,0.3c0,0,0,0,0,0l-7.4,11.6H8.9c-0.5,0-1,0.3-1.2,0.7l-7.9,11.8
	c-0.3,0.5-0.3,1.1,0,1.6L15.5,52c0,0.1,0.1,0.1,0.1,0.1c0,0,0.1,0.1,0.1,0.1c0.1,0.1,0.1,0.1,0.2,0.1c0,0,0.1,0.1,0.1,0.1
	c0.1,0,0.1,0.1,0.2,0.1c0,0,0.1,0,0.1,0.1c0.1,0,0.2,0,0.4,0c0,0,0,0,0,0c0,0,0,0,0,0l15.7-0.2c0.5,0,1-0.3,1.2-0.7l7.5-11.5
	l14.4-0.1c0.5,0,1-0.3,1.3-0.7l7.6-12.4c0,0,0,0,0-0.1C64.6,27,64.6,26.9,64.6,26.7C64.6,26.8,64.6,26.8,64.6,26.7z M60.5,24.8
	l-9.9-0.1l4.9-8L60.5,24.8z M52.7,12.2l-11.5,0.1l-6.1-9.4h11.8L52.7,12.2z M18.3,24.7l-6.1-9.5h11.4l6.2,9.6L18.3,24.7z M32.6,23.6
	l-6.3-9.8l6.1-9.6l6.2,9.6L32.6,23.6z M9.1,16l6.4,9.9L9.2,36.1L2.8,25.5L9.1,16z M16.8,48.4l-5.2-8.5l10.7-0.2L16.8,48.4z
	 M54.7,37.3l-14.4,0.1c-0.5,0-1,0.3-1.2,0.7l-7.5,11.5l-12.1,0.2L26.4,39c0.3-0.5,0.3-1.1,0-1.5c-0.3-0.5-0.8-0.8-1.3-0.8
	c0,0,0,0,0,0l-12.8,0.2l5.6-9.2c0,0,0,0,0,0l14.7,0.1c0.5,0,1-0.3,1.3-0.7l7.2-11.9l11.7-0.1l-6.2,10.2c-0.3,0.5-0.3,1,0,1.5
	s0.8,0.8,1.3,0.8l12.6,0.2L54.7,37.3z"/>
</svg>
